<?xml version="1.0" encoding="utf-8"?>
<!-- Generator: Adobe Illustrator 27.5.0, SVG Export Plug-In . SVG Version: 6.00 Build 0)  -->
<svg version="1.1" xmlns="http://www.w3.org/2000/svg" xmlns:xlink="http://www.w3.org/1999/xlink" x="0px" y="0px"
	 viewBox="0 0 500 500" style="enable-background:new 0 0 500 500;" xml:space="preserve">
<g id="BACKGROUND">
	
		<radialGradient id="SVGID_1_" cx="152.5953" cy="250" r="749.5267" gradientTransform="matrix(0.6667 0 0 0.743 148.2647 64.2432)" gradientUnits="userSpaceOnUse">
		<stop  offset="0" style="stop-color:#FFFFFF"/>
		<stop  offset="0.2429" style="stop-color:#F9F9F9"/>
		<stop  offset="0.576" style="stop-color:#E7E7E7"/>
		<stop  offset="0.9598" style="stop-color:#CACACA"/>
		<stop  offset="1" style="stop-color:#C7C7C7"/>
	</radialGradient>
	<polygon style="fill:url(#SVGID_1_);" points="500,0 500,500 0,500 0,0 	"/>
</g>
<g id="OBJECTS">
	<g>
		<g>
			<path style="opacity:0.37;fill:#D8D8D8;" d="M424.734,385.01c3.137,3.565,5.454,7.87,6.642,12.618
				c0.588,2.35,0.905,4.807,0.905,7.337c0,3.068-0.462,6.029-1.316,8.82l6.34,11.102l8.723-3.65
				c1.883-5.072,2.915-10.553,2.915-16.272c0-4.525-0.646-8.901-1.848-13.043c-1.867-6.439-5.091-12.302-9.324-17.281l-1.123,10.214
				L424.734,385.01z"/>
			<path style="opacity:0.37;fill:#D8D8D8;" d="M401.826,374.734c0.073-0.001,0.146-0.006,0.219-0.006
				c5.21,0,10.116,1.325,14.4,3.654c3.142,1.709,5.944,3.962,8.29,6.627l11.915-0.156l1.123-10.214
				c-3.823-4.497-8.467-8.274-13.713-11.075c-6.568-3.507-14.063-5.499-22.014-5.499c-0.442,0-0.882,0.01-1.322,0.023l7.926,8.167
				L401.826,374.734z"/>
			<path style="fill:#FF3169;" d="M437.306,424.887l-6.34-11.102c-3.608,11.806-14.26,20.561-27.036,21.352
				c-0.624,0.039-1.251,0.065-1.885,0.065c-4.994,0-9.705-1.224-13.86-3.377c-3.302-1.711-6.238-4.023-8.693-6.774
				c-4.769-5.344-7.684-12.375-7.684-20.086c0-4.039,0.796-7.895,2.24-11.421c4.337-10.592,14.518-18.195,26.511-18.778
				c0.42-0.021,0.843-0.029,1.267-0.032l6.824-8.478l-7.926-8.167c-0.055,0.001-0.11,0.001-0.164,0.003
				c-20.291,0.635-37.367,14.224-43.232,32.751c-1.412,4.46-2.182,9.201-2.182,14.122c0,12.605,5.001,24.062,13.121,32.497
				c3.236,3.362,6.967,6.246,11.076,8.529c6.731,3.739,14.471,5.873,22.702,5.873c0.998,0,1.985-0.042,2.967-0.104
				c18.85-1.184,34.715-13.545,41.017-30.523L437.306,424.887z"/>
		</g>
		<text transform="matrix(1 0 0 1 357.9916 408.786)" style="fill:#FFFFFF; font-family:'Bebas'; font-size:6.7537px;">73%</text>
		<text transform="matrix(1 0 0 1 429.2192 388.1194)" style="fill:#7A8487; font-family:'Bebas'; font-size:6.7537px;">25%</text>
		<g>
			<text transform="matrix(1 0 0 1 425.3204 456.6895)" style="fill:#7A8487; font-family:'Bebas'; font-size:6.7742px;">consectetue</text>
		</g>
		<g>
			<text transform="matrix(1 0 0 1 425.3204 362.6895)" style="fill:#7A8487; font-family:'Bebas'; font-size:6.7742px;">elit</text>
		</g>
	</g>
	<g>
		<path style="fill:#9F49A3;" d="M269.175,387.604c3.137,3.565,5.454,7.869,6.642,12.618c0.588,2.35,0.905,4.807,0.905,7.337
			c0,3.068-0.462,6.029-1.316,8.82l6.34,11.102l8.723-3.65c1.883-5.072,2.915-10.553,2.915-16.272c0-4.525-0.646-8.901-1.848-13.043
			c-1.867-6.439-5.091-12.302-9.324-17.281l-1.123,10.214L269.175,387.604z"/>
		<path style="fill:#005C86;" d="M246.267,377.328c0.073-0.001,0.146-0.005,0.219-0.005c5.21,0,10.116,1.324,14.4,3.654
			c3.142,1.709,5.944,3.962,8.29,6.627l11.915-0.156l1.123-10.214c-3.823-4.497-8.467-8.274-13.713-11.075
			c-6.568-3.507-14.063-5.499-22.014-5.499c-0.442,0-0.882,0.01-1.322,0.023l7.926,8.167L246.267,377.328z"/>
		<path style="fill:#00A0CF;" d="M248.371,437.731c-0.624,0.039-1.251,0.065-1.885,0.065c-4.994,0-9.705-1.224-13.86-3.377
			c-3.302-1.711-6.238-4.023-8.693-6.774l-8.98-0.451l-2.245,12.863c3.236,3.362,6.967,6.246,11.076,8.529
			c6.731,3.739,14.471,5.873,22.702,5.873c0.997,0,1.985-0.042,2.967-0.104l-7.869-9.207L248.371,437.731z"/>
		<path style="fill:#00B4B0;" d="M290.47,423.832l-8.723,3.65l-6.34-11.102c-3.608,11.806-14.26,20.561-27.036,21.352l-6.786,7.417
			l7.869,9.207C268.304,453.171,284.169,440.81,290.47,423.832z"/>
		<path style="fill:#FFA523;" d="M223.933,427.645c-4.769-5.344-7.684-12.375-7.684-20.086c0-4.039,0.796-7.895,2.24-11.421
			l-3.555-7.255l-13.166,4.554c-1.412,4.46-2.182,9.201-2.182,14.122c0,12.605,5.001,24.062,13.121,32.497l2.245-12.863
			L223.933,427.645z"/>
		<path style="fill:#FF3169;" d="M218.489,396.139c4.337-10.592,14.518-18.195,26.511-18.778c0.42-0.021,0.843-0.029,1.267-0.032
			l6.824-8.478l-7.926-8.167c-0.055,0.001-0.11,0.001-0.164,0.003c-20.291,0.635-37.367,14.224-43.232,32.751l13.166-4.554
			L218.489,396.139z"/>
		<text transform="matrix(1 0 0 1 221.7188 378.4111)" style="fill:#FFFFFF; font-family:'Bebas'; font-size:7.5083px;">a</text>
		<text transform="matrix(1 0 0 1 262.8438 378.411)" style="fill:#FFFFFF; font-family:'Bebas'; font-size:7.5083px;">b</text>
		<text transform="matrix(1 0 0 1 281.2803 408.786)" style="fill:#FFFFFF; font-family:'Bebas'; font-size:7.5083px;">c</text>
		<text transform="matrix(1 0 0 1 264.9053 442.286)" style="fill:#FFFFFF; font-family:'Bebas'; font-size:7.5083px;">d</text>
		<text transform="matrix(1 0 0 1 226.4053 446.036)" style="fill:#FFFFFF; font-family:'Bebas'; font-size:7.5083px;">e</text>
		<text transform="matrix(1 0 0 1 207.4149 412.661)" style="fill:#FFFFFF; font-family:'Bebas'; font-size:7.5083px;">f</text>
		<g>
			<text transform="matrix(1 0 0 1 225.0791 408.786)"><tspan x="0" y="0" style="fill:#7A8487; font-family:'Bebas'; font-size:10.0015px;">nonummy </tspan><tspan x="13.242" y="12.002" style="fill:#7A8487; font-family:'Bebas'; font-size:10.0015px;">nibh</tspan></text>
		</g>
	</g>
	<g>
		<g>
			<g>
				<path style="fill:#D8D8D8;" d="M121.252,382.877c12.179,17.245,8.058,41.183-9.187,53.363
					c-17.245,12.179-41.183,8.058-53.363-9.187c-12.179-17.245-8.058-41.183,9.187-53.363
					C85.135,361.511,109.073,365.632,121.252,382.877z M60.405,425.85c11.516,16.306,34.152,20.204,50.458,8.687
					c16.306-11.516,20.204-34.152,8.687-50.458c-11.516-16.307-34.152-20.204-50.458-8.687
					C52.785,386.908,48.888,409.544,60.405,425.85z"/>
			</g>
			<g>
				<path style="fill:#FFA523;" d="M60.617,425.7c-10.981-15.871-7.64-38.14,8.03-49.667c15.534-11.427,38.072-8.328,49.824,7.018
					c7.396,9.658,9.354,22.44,5.397,33.911c-0.542,1.57,1.823,2.667,2.371,1.079c7.28-21.105-4.668-44.524-26.397-50.336
					c-20.056-5.365-41.266,6.829-46.944,26.738c-3.193,11.195-1.006,23.225,5.591,32.76C59.444,428.582,61.572,427.08,60.617,425.7
					L60.617,425.7z"/>
			</g>
			<g>
				<g>
					<path style="fill:#D8D8D8;" d="M128.373,377.906c15.173,21.483,10.038,51.305-11.445,66.477
						c-21.484,15.173-51.305,10.038-66.478-11.445c-15.173-21.483-10.038-51.305,11.445-66.477
						C83.379,351.289,113.201,356.423,128.373,377.906z M52.295,431.636c14.454,20.466,42.864,25.358,63.331,10.904
						c20.466-14.454,25.358-42.864,10.903-63.331c-14.454-20.466-42.864-25.358-63.331-10.904
						C42.732,382.76,37.841,411.17,52.295,431.636z"/>
				</g>
				<g>
					<path style="fill:#00B4B0;" d="M52.525,431.473c-8.543-12.313-10.686-28.201-5.275-42.248
						c5.388-13.988,17.687-24.633,32.332-27.897c14.25-3.176,29.517,0.911,40.295,10.745c11.18,10.2,16.547,25.725,14.098,40.647
						c-3.023,18.422-17.404,33.205-35.665,36.994c-1.761,0.365-1.534,3.181,0.242,2.812c17.132-3.555,31.364-15.919,36.616-32.703
						c4.763-15.221,1.604-32.199-8.473-44.599c-10.018-12.328-25.817-19.027-41.651-17.594
						c-15.881,1.438-30.311,11.016-37.884,25.034c-8.618,15.951-7.225,35.614,3.057,50.435
						C51.256,434.594,53.562,432.967,52.525,431.473L52.525,431.473z"/>
				</g>
			</g>
		</g>
		<text transform="matrix(1 0 0 1 59.7188 421.9775)" style="fill:#FFA523; font-family:'Bebas'; font-size:7.3113px;">45%</text>
		<text transform="matrix(1 0 0 1 97.9688 463.3916)" style="fill:#00B4B0; font-family:'Bebas'; font-size:9.5628px;">78%</text>
		<g>
			<text transform="matrix(1 0 0 1 72.9854 408.786)" style="fill:#7A8487; font-family:'Bebas'; font-size:10.0015px;">dolor sit</text>
		</g>
	</g>
	<g>
		<g>
			<g>
				<g>
					<path style="fill:#D8D8D8;" d="M211.507,71.4L211.507,71.4c-0.507,0.687-1.475,0.832-2.162,0.325l-9.326-6.888
						c-0.687-0.507-0.833-1.475-0.325-2.162l0,0c0.507-0.687,1.475-0.832,2.162-0.325l9.326,6.888
						C211.869,69.745,212.014,70.713,211.507,71.4z"/>
					<path style="fill:#D8D8D8;" d="M268.708,113.648L268.708,113.648c-0.507,0.687-0.362,1.655,0.325,2.162l9.326,6.888
						c0.687,0.507,1.655,0.362,2.162-0.325l0,0c0.507-0.687,0.362-1.655-0.325-2.162l-9.326-6.888
						C270.183,112.816,269.215,112.961,268.708,113.648z"/>
					<path style="fill:#D8D8D8;" d="M261.231,63.924L261.231,63.924c0.687,0.507,1.655,0.362,2.162-0.325l6.888-9.326
						c0.507-0.687,0.362-1.655-0.325-2.162l0,0c-0.687-0.507-1.655-0.362-2.162,0.325l-6.888,9.326
						C260.399,62.449,260.545,63.417,261.231,63.924z"/>
					<path style="fill:#D8D8D8;" d="M204.947,97.811L204.947,97.811c0.127,0.844-0.454,1.632-1.299,1.758l-11.465,1.724
						c-0.844,0.127-1.632-0.454-1.758-1.299l0,0c-0.127-0.844,0.454-1.632,1.299-1.758l11.465-1.724
						C204.033,96.385,204.82,96.966,204.947,97.811z"/>
					<path style="fill:#D8D8D8;" d="M275.268,87.237L275.268,87.237c0.127,0.844,0.914,1.426,1.759,1.299l11.465-1.724
						c0.844-0.127,1.426-0.914,1.299-1.759l0,0c-0.127-0.844-0.914-1.426-1.759-1.299l-11.465,1.724
						C275.723,85.606,275.141,86.393,275.268,87.237z"/>
					<path style="fill:#D8D8D8;" d="M245.394,127.685L245.394,127.685c0.844-0.127,1.632,0.454,1.758,1.299l1.724,11.465
						c0.127,0.844-0.454,1.632-1.299,1.759l0,0c-0.844,0.127-1.632-0.455-1.759-1.299l-1.724-11.465
						C243.968,128.599,244.55,127.811,245.394,127.685z"/>
					<path style="fill:#D8D8D8;" d="M234.821,57.364L234.821,57.364c0.844-0.127,1.426-0.914,1.299-1.759l-1.724-11.465
						c-0.127-0.844-0.914-1.426-1.758-1.299l0,0c-0.845,0.127-1.426,0.914-1.299,1.759l1.724,11.465
						C233.189,56.909,233.977,57.491,234.821,57.364z"/>
					<path style="fill:#D8D8D8;" d="M211.507,71.4L211.507,71.4c-0.507,0.687-1.475,0.832-2.162,0.325l-9.326-6.888
						c-0.687-0.507-0.833-1.475-0.325-2.162l0,0c0.507-0.687,1.475-0.832,2.162-0.325l9.326,6.888
						C211.869,69.745,212.014,70.713,211.507,71.4z"/>
					<path style="fill:#D8D8D8;" d="M268.708,113.648L268.708,113.648c-0.507,0.687-0.362,1.655,0.325,2.162l9.326,6.888
						c0.687,0.507,1.655,0.362,2.162-0.325l0,0c0.507-0.687,0.362-1.655-0.325-2.162l-9.326-6.888
						C270.183,112.816,269.215,112.961,268.708,113.648z"/>
					<path style="fill:#D8D8D8;" d="M261.231,63.924L261.231,63.924c0.687,0.507,1.655,0.362,2.162-0.325l6.888-9.326
						c0.507-0.687,0.362-1.655-0.325-2.162l0,0c-0.687-0.507-1.655-0.362-2.162,0.325l-6.888,9.326
						C260.399,62.449,260.545,63.417,261.231,63.924z"/>
					<path style="fill:#D8D8D8;" d="M204.947,97.811L204.947,97.811c0.127,0.844-0.454,1.632-1.299,1.758l-11.465,1.724
						c-0.844,0.127-1.632-0.454-1.758-1.299l0,0c-0.127-0.844,0.454-1.632,1.299-1.758l11.465-1.724
						C204.033,96.385,204.82,96.966,204.947,97.811z"/>
					<path style="fill:#D8D8D8;" d="M275.268,87.237L275.268,87.237c0.127,0.844,0.914,1.426,1.759,1.299l11.465-1.724
						c0.844-0.127,1.426-0.914,1.299-1.759l0,0c-0.127-0.844-0.914-1.426-1.759-1.299l-11.465,1.724
						C275.723,85.606,275.141,86.393,275.268,87.237z"/>
					<path style="fill:#D8D8D8;" d="M245.394,127.685L245.394,127.685c0.844-0.127,1.632,0.454,1.758,1.299l1.724,11.465
						c0.127,0.844-0.454,1.632-1.299,1.759l0,0c-0.844,0.127-1.632-0.455-1.759-1.299l-1.724-11.465
						C243.968,128.599,244.55,127.811,245.394,127.685z"/>
					<path style="fill:#D8D8D8;" d="M234.821,57.364L234.821,57.364c0.844-0.127,1.426-0.914,1.299-1.759l-1.724-11.465
						c-0.127-0.844-0.914-1.426-1.758-1.299l0,0c-0.845,0.127-1.426,0.914-1.299,1.759l1.724,11.465
						C233.189,56.909,233.977,57.491,234.821,57.364z"/>
					<path style="fill:#D8D8D8;" d="M204.584,91.022L204.584,91.022c-0.036,0.853-0.757,1.515-1.61,1.479l-11.584-0.49
						c-0.853-0.036-1.515-0.757-1.479-1.61l0,0c0.036-0.853,0.757-1.515,1.61-1.479l11.584,0.49
						C203.957,89.448,204.62,90.169,204.584,91.022z"/>
					<path style="fill:#D8D8D8;" d="M275.631,94.026L275.631,94.026c-0.036,0.853,0.626,1.574,1.479,1.61l11.584,0.49
						c0.853,0.036,1.574-0.626,1.61-1.479l0,0c0.036-0.853-0.626-1.574-1.479-1.61l-11.584-0.49
						C276.388,92.511,275.667,93.173,275.631,94.026z"/>
					<path style="fill:#D8D8D8;" d="M238.605,128.048L238.605,128.048c0.853,0.036,1.515,0.757,1.479,1.61l-0.49,11.584
						c-0.036,0.853-0.757,1.515-1.61,1.479l0,0c-0.853-0.036-1.515-0.757-1.479-1.61l0.49-11.584
						C237.031,128.674,237.752,128.012,238.605,128.048z"/>
					<path style="fill:#D8D8D8;" d="M241.61,57L241.61,57c0.853,0.036,1.574-0.626,1.61-1.479l0.49-11.584
						c0.036-0.853-0.626-1.574-1.479-1.61l0,0c-0.853-0.036-1.574,0.626-1.61,1.479l-0.49,11.584
						C240.094,56.243,240.757,56.964,241.61,57z"/>
					<path style="fill:#D8D8D8;" d="M213.926,116.581L213.926,116.581c0.578,0.629,0.536,1.607-0.092,2.184l-8.537,7.845
						c-0.628,0.578-1.607,0.536-2.184-0.092l0,0c-0.578-0.629-0.536-1.607,0.092-2.184l8.537-7.845
						C212.371,115.911,213.348,115.952,213.926,116.581z"/>
					<path style="fill:#D8D8D8;" d="M266.289,68.467L266.289,68.467c0.578,0.629,1.556,0.67,2.184,0.092l8.537-7.845
						c0.629-0.578,0.67-1.556,0.092-2.184l0,0c-0.578-0.629-1.555-0.67-2.184-0.092l-8.537,7.844
						C265.752,66.861,265.711,67.839,266.289,68.467z"/>
					<path style="fill:#D8D8D8;" d="M264.164,118.705L264.164,118.705c0.629-0.578,1.606-0.536,2.184,0.092l7.845,8.537
						c0.578,0.629,0.536,1.607-0.092,2.184l0,0c-0.629,0.578-1.607,0.536-2.184-0.092l-7.845-8.537
						C263.495,120.261,263.536,119.283,264.164,118.705z"/>
					<path style="fill:#D8D8D8;" d="M216.051,66.343L216.051,66.343c0.629-0.578,0.67-1.556,0.092-2.184l-7.845-8.537
						c-0.578-0.629-1.555-0.67-2.184-0.092l0,0c-0.629,0.578-0.67,1.556-0.092,2.184l7.845,8.537
						C214.444,66.879,215.422,66.92,216.051,66.343z"/>
					<path style="fill:#D8D8D8;" d="M204.584,91.022L204.584,91.022c-0.036,0.853-0.757,1.515-1.61,1.479l-11.584-0.49
						c-0.853-0.036-1.515-0.757-1.479-1.61l0,0c0.036-0.853,0.757-1.515,1.61-1.479l11.584,0.49
						C203.957,89.448,204.62,90.169,204.584,91.022z"/>
					<path style="fill:#D8D8D8;" d="M275.631,94.026L275.631,94.026c-0.036,0.853,0.626,1.574,1.479,1.61l11.584,0.49
						c0.853,0.036,1.574-0.626,1.61-1.479l0,0c0.036-0.853-0.626-1.574-1.479-1.61l-11.584-0.49
						C276.388,92.511,275.667,93.173,275.631,94.026z"/>
					<path style="fill:#D8D8D8;" d="M238.605,128.048L238.605,128.048c0.853,0.036,1.515,0.757,1.479,1.61l-0.49,11.584
						c-0.036,0.853-0.757,1.515-1.61,1.479l0,0c-0.853-0.036-1.515-0.757-1.479-1.61l0.49-11.584
						C237.031,128.674,237.752,128.012,238.605,128.048z"/>
					<path style="fill:#D8D8D8;" d="M241.61,57L241.61,57c0.853,0.036,1.574-0.626,1.61-1.479l0.49-11.584
						c0.036-0.853-0.626-1.574-1.479-1.61l0,0c-0.853-0.036-1.574,0.626-1.61,1.479l-0.49,11.584
						C240.094,56.243,240.757,56.964,241.61,57z"/>
					<path style="fill:#D8D8D8;" d="M213.926,116.581L213.926,116.581c0.578,0.629,0.536,1.607-0.092,2.184l-8.537,7.845
						c-0.628,0.578-1.607,0.536-2.184-0.092l0,0c-0.578-0.629-0.536-1.607,0.092-2.184l8.537-7.845
						C212.371,115.911,213.348,115.952,213.926,116.581z"/>
					<path style="fill:#D8D8D8;" d="M266.289,68.467L266.289,68.467c0.578,0.629,1.556,0.67,2.184,0.092l8.537-7.845
						c0.629-0.578,0.67-1.556,0.092-2.184l0,0c-0.578-0.629-1.555-0.67-2.184-0.092l-8.537,7.844
						C265.752,66.861,265.711,67.839,266.289,68.467z"/>
					<path style="fill:#D8D8D8;" d="M264.164,118.705L264.164,118.705c0.629-0.578,1.606-0.536,2.184,0.092l7.845,8.537
						c0.578,0.629,0.536,1.607-0.092,2.184l0,0c-0.629,0.578-1.607,0.536-2.184-0.092l-7.845-8.537
						C263.495,120.261,263.536,119.283,264.164,118.705z"/>
					<path style="fill:#D8D8D8;" d="M216.051,66.343L216.051,66.343c0.629-0.578,0.67-1.556,0.092-2.184l-7.845-8.537
						c-0.578-0.629-1.555-0.67-2.184-0.092l0,0c-0.629,0.578-0.67,1.556-0.092,2.184l7.845,8.537
						C214.444,66.879,215.422,66.92,216.051,66.343z"/>
					<path style="fill:#D8D8D8;" d="M221.471,62.244L221.471,62.244c-0.727,0.447-1.679,0.221-2.127-0.506l-6.077-9.874
						c-0.447-0.727-0.221-1.679,0.506-2.127l0,0c0.727-0.447,1.679-0.221,2.127,0.506l6.077,9.874
						C222.424,60.845,222.198,61.797,221.471,62.244z"/>
					<path style="fill:#D8D8D8;" d="M258.744,122.804L258.744,122.804c-0.727,0.448-0.954,1.4-0.506,2.127l6.077,9.874
						c0.447,0.727,1.4,0.954,2.127,0.506l0,0c0.727-0.448,0.954-1.4,0.506-2.127l-6.077-9.874
						C260.424,122.583,259.471,122.356,258.744,122.804z"/>
					<path style="fill:#D8D8D8;" d="M209.828,111.161L209.828,111.161c0.447,0.727,0.221,1.679-0.506,2.127l-9.874,6.077
						c-0.727,0.448-1.679,0.221-2.127-0.506l0,0c-0.447-0.727-0.221-1.679,0.506-2.127l9.874-6.077
						C208.428,110.207,209.38,110.434,209.828,111.161z"/>
					<path style="fill:#D8D8D8;" d="M270.387,73.887L270.387,73.887c0.447,0.727,1.4,0.954,2.127,0.506l9.874-6.077
						c0.727-0.448,0.954-1.4,0.506-2.127l0,0c-0.448-0.727-1.4-0.954-2.127-0.506l-9.874,6.077
						C270.166,72.208,269.94,73.16,270.387,73.887z"/>
					<path style="fill:#D8D8D8;" d="M205.518,84.291L205.518,84.291c-0.198,0.831-1.031,1.344-1.862,1.146l-11.279-2.685
						c-0.831-0.198-1.344-1.031-1.146-1.862l0,0c0.198-0.831,1.031-1.344,1.862-1.146l11.279,2.685
						C205.203,82.627,205.716,83.461,205.518,84.291z"/>
					<path style="fill:#D8D8D8;" d="M274.697,100.757L274.697,100.757c-0.198,0.831,0.315,1.664,1.146,1.862l11.279,2.685
						c0.831,0.198,1.664-0.315,1.862-1.146l0,0c0.198-0.831-0.315-1.664-1.146-1.862l-11.279-2.685
						C275.728,99.413,274.894,99.926,274.697,100.757z"/>
					<path style="fill:#D8D8D8;" d="M231.875,127.113L231.875,127.113c0.831,0.198,1.344,1.031,1.146,1.862l-2.684,11.279
						c-0.198,0.831-1.031,1.344-1.862,1.146l0,0c-0.83-0.198-1.344-1.031-1.146-1.862l2.685-11.279
						C230.21,127.429,231.044,126.916,231.875,127.113z"/>
					<path style="fill:#D8D8D8;" d="M248.34,57.935L248.34,57.935c0.83,0.198,1.664-0.315,1.862-1.146l2.685-11.279
						c0.198-0.831-0.315-1.664-1.146-1.862l0,0c-0.831-0.198-1.664,0.315-1.862,1.146l-2.685,11.279
						C246.997,56.904,247.51,57.737,248.34,57.935z"/>
					<path style="fill:#D8D8D8;" d="M221.471,62.244L221.471,62.244c-0.727,0.447-1.679,0.221-2.127-0.506l-6.077-9.874
						c-0.447-0.727-0.221-1.679,0.506-2.127l0,0c0.727-0.447,1.679-0.221,2.127,0.506l6.077,9.874
						C222.424,60.845,222.198,61.797,221.471,62.244z"/>
					<path style="fill:#D8D8D8;" d="M258.744,122.804L258.744,122.804c-0.727,0.448-0.954,1.4-0.506,2.127l6.077,9.874
						c0.447,0.727,1.4,0.954,2.127,0.506l0,0c0.727-0.448,0.954-1.4,0.506-2.127l-6.077-9.874
						C260.424,122.583,259.471,122.356,258.744,122.804z"/>
					<path style="fill:#D8D8D8;" d="M209.828,111.161L209.828,111.161c0.447,0.727,0.221,1.679-0.506,2.127l-9.874,6.077
						c-0.727,0.448-1.679,0.221-2.127-0.506l0,0c-0.447-0.727-0.221-1.679,0.506-2.127l9.874-6.077
						C208.428,110.207,209.38,110.434,209.828,111.161z"/>
					<path style="fill:#D8D8D8;" d="M270.387,73.887L270.387,73.887c0.447,0.727,1.4,0.954,2.127,0.506l9.874-6.077
						c0.727-0.448,0.954-1.4,0.506-2.127l0,0c-0.448-0.727-1.4-0.954-2.127-0.506l-9.874,6.077
						C270.166,72.208,269.94,73.16,270.387,73.887z"/>
					<path style="fill:#D8D8D8;" d="M205.518,84.291L205.518,84.291c-0.198,0.831-1.031,1.344-1.862,1.146l-11.279-2.685
						c-0.831-0.198-1.344-1.031-1.146-1.862l0,0c0.198-0.831,1.031-1.344,1.862-1.146l11.279,2.685
						C205.203,82.627,205.716,83.461,205.518,84.291z"/>
					<path style="fill:#D8D8D8;" d="M274.697,100.757L274.697,100.757c-0.198,0.831,0.315,1.664,1.146,1.862l11.279,2.685
						c0.831,0.198,1.664-0.315,1.862-1.146l0,0c0.198-0.831-0.315-1.664-1.146-1.862l-11.279-2.685
						C275.728,99.413,274.894,99.926,274.697,100.757z"/>
					<path style="fill:#D8D8D8;" d="M231.875,127.113L231.875,127.113c0.831,0.198,1.344,1.031,1.146,1.862l-2.684,11.279
						c-0.198,0.831-1.031,1.344-1.862,1.146l0,0c-0.83-0.198-1.344-1.031-1.146-1.862l2.685-11.279
						C230.21,127.429,231.044,126.916,231.875,127.113z"/>
					<path style="fill:#D8D8D8;" d="M248.34,57.935L248.34,57.935c0.83,0.198,1.664-0.315,1.862-1.146l2.685-11.279
						c0.198-0.831-0.315-1.664-1.146-1.862l0,0c-0.831-0.198-1.664,0.315-1.862,1.146l-2.685,11.279
						C246.997,56.904,247.51,57.737,248.34,57.935z"/>
					<path style="fill:#D8D8D8;" d="M207.717,77.858L207.717,77.858c-0.352,0.778-1.268,1.123-2.046,0.771l-10.562-4.782
						c-0.778-0.352-1.123-1.268-0.77-2.046l0,0c0.352-0.778,1.268-1.123,2.046-0.771l10.562,4.782
						C207.725,76.164,208.07,77.08,207.717,77.858z"/>
					<path style="fill:#D8D8D8;" d="M272.497,107.19L272.497,107.19c-0.352,0.778-0.007,1.694,0.771,2.046l10.562,4.782
						c0.778,0.352,1.694,0.007,2.046-0.771l0,0c0.352-0.778,0.007-1.694-0.771-2.046l-10.562-4.782
						C273.766,106.067,272.85,106.412,272.497,107.19z"/>
					<path style="fill:#D8D8D8;" d="M225.442,124.914L225.442,124.914c0.778,0.352,1.123,1.268,0.771,2.046l-4.782,10.562
						c-0.352,0.778-1.268,1.123-2.046,0.77l0,0c-0.778-0.352-1.123-1.268-0.771-2.046l4.782-10.562
						C223.748,124.907,224.664,124.562,225.442,124.914z"/>
					<path style="fill:#D8D8D8;" d="M254.773,60.134L254.773,60.134c0.778,0.352,1.694,0.007,2.046-0.771l4.782-10.562
						c0.352-0.778,0.007-1.694-0.771-2.046l0,0c-0.778-0.352-1.694-0.007-2.046,0.771l-4.782,10.562
						C253.65,58.866,253.995,59.782,254.773,60.134z"/>
					<path style="fill:#D8D8D8;" d="M206.834,105.057L206.834,105.057c0.301,0.799-0.103,1.691-0.902,1.992l-10.85,4.087
						c-0.799,0.301-1.691-0.103-1.992-0.902l0,0c-0.301-0.799,0.103-1.691,0.902-1.992l10.85-4.087
						C205.641,103.854,206.533,104.258,206.834,105.057z"/>
					<path style="fill:#D8D8D8;" d="M273.381,79.991L273.381,79.991c0.301,0.799,1.193,1.203,1.992,0.902l10.85-4.087
						c0.799-0.301,1.203-1.193,0.902-1.992l0,0c-0.301-0.799-1.193-1.203-1.992-0.902L274.283,78
						C273.484,78.301,273.08,79.192,273.381,79.991z"/>
					<path style="fill:#D8D8D8;" d="M252.64,125.798L252.64,125.798c0.799-0.301,1.69,0.103,1.991,0.902l4.087,10.85
						c0.301,0.799-0.103,1.691-0.902,1.992l0,0c-0.799,0.301-1.691-0.103-1.992-0.902l-4.087-10.85
						C251.438,126.99,251.841,126.098,252.64,125.798z"/>
					<path style="fill:#D8D8D8;" d="M227.574,59.251L227.574,59.251c0.799-0.301,1.203-1.193,0.902-1.992l-4.087-10.85
						c-0.301-0.799-1.193-1.203-1.992-0.902l0,0c-0.799,0.301-1.203,1.193-0.902,1.992l4.087,10.85
						C225.884,59.148,226.776,59.551,227.574,59.251z"/>
					<path style="fill:#D8D8D8;" d="M207.717,77.858L207.717,77.858c-0.352,0.778-1.268,1.123-2.046,0.771l-10.562-4.782
						c-0.778-0.352-1.123-1.268-0.77-2.046l0,0c0.352-0.778,1.268-1.123,2.046-0.771l10.562,4.782
						C207.725,76.164,208.07,77.08,207.717,77.858z"/>
					<path style="fill:#D8D8D8;" d="M272.497,107.19L272.497,107.19c-0.352,0.778-0.007,1.694,0.771,2.046l10.562,4.782
						c0.778,0.352,1.694,0.007,2.046-0.771l0,0c0.352-0.778,0.007-1.694-0.771-2.046l-10.562-4.782
						C273.766,106.067,272.85,106.412,272.497,107.19z"/>
					<path style="fill:#D8D8D8;" d="M225.442,124.914L225.442,124.914c0.778,0.352,1.123,1.268,0.771,2.046l-4.782,10.562
						c-0.352,0.778-1.268,1.123-2.046,0.77l0,0c-0.778-0.352-1.123-1.268-0.771-2.046l4.782-10.562
						C223.748,124.907,224.664,124.562,225.442,124.914z"/>
					<path style="fill:#D8D8D8;" d="M254.773,60.134L254.773,60.134c0.778,0.352,1.694,0.007,2.046-0.771l4.782-10.562
						c0.352-0.778,0.007-1.694-0.771-2.046l0,0c-0.778-0.352-1.694-0.007-2.046,0.771l-4.782,10.562
						C253.65,58.866,253.995,59.782,254.773,60.134z"/>
					<path style="fill:#D8D8D8;" d="M206.834,105.057L206.834,105.057c0.301,0.799-0.103,1.691-0.902,1.992l-10.85,4.087
						c-0.799,0.301-1.691-0.103-1.992-0.902l0,0c-0.301-0.799,0.103-1.691,0.902-1.992l10.85-4.087
						C205.641,103.854,206.533,104.258,206.834,105.057z"/>
					<path style="fill:#D8D8D8;" d="M273.381,79.991L273.381,79.991c0.301,0.799,1.193,1.203,1.992,0.902l10.85-4.087
						c0.799-0.301,1.203-1.193,0.902-1.992l0,0c-0.301-0.799-1.193-1.203-1.992-0.902L274.283,78
						C273.484,78.301,273.08,79.192,273.381,79.991z"/>
					<path style="fill:#D8D8D8;" d="M252.64,125.798L252.64,125.798c0.799-0.301,1.69,0.103,1.991,0.902l4.087,10.85
						c0.301,0.799-0.103,1.691-0.902,1.992l0,0c-0.799,0.301-1.691-0.103-1.992-0.902l-4.087-10.85
						C251.438,126.99,251.841,126.098,252.64,125.798z"/>
					<path style="fill:#D8D8D8;" d="M227.574,59.251L227.574,59.251c0.799-0.301,1.203-1.193,0.902-1.992l-4.087-10.85
						c-0.301-0.799-1.193-1.203-1.992-0.902l0,0c-0.799,0.301-1.203,1.193-0.902,1.992l4.087,10.85
						C225.884,59.148,226.776,59.551,227.574,59.251z"/>
				</g>
				<path style="fill:#FF3169;" d="M203.228,96.606l-11.465,1.724c-0.844,0.127-1.426,0.914-1.299,1.759l0,0
					c0.127,0.844,0.914,1.426,1.759,1.299l11.465-1.724c0.844-0.127,1.426-0.914,1.299-1.759l0,0
					C204.859,97.061,204.072,96.48,203.228,96.606z M244.134,129.538l1.724,11.465c0.127,0.844,0.914,1.426,1.758,1.299l0,0
					c0.844-0.127,1.426-0.914,1.299-1.759l-1.724-11.465c-0.127-0.844-0.914-1.426-1.759-1.299l0,0
					C244.589,127.906,244.008,128.693,244.134,129.538z M203.228,96.606l-11.465,1.724c-0.844,0.127-1.426,0.914-1.299,1.759l0,0
					c0.127,0.844,0.914,1.426,1.759,1.299l11.465-1.724c0.844-0.127,1.426-0.914,1.299-1.759l0,0
					C204.859,97.061,204.072,96.48,203.228,96.606z M244.134,129.538l1.724,11.465c0.127,0.844,0.914,1.426,1.758,1.299l0,0
					c0.844-0.127,1.426-0.914,1.299-1.759l-1.724-11.465c-0.127-0.844-0.914-1.426-1.759-1.299l0,0
					C244.589,127.906,244.008,128.693,244.134,129.538z M203.144,89.507l-11.584-0.49c-0.853-0.036-1.574,0.626-1.61,1.479l0,0
					c-0.036,0.853,0.626,1.574,1.479,1.61l11.584,0.49c0.853,0.036,1.574-0.626,1.61-1.479l0,0
					C204.659,90.263,203.997,89.543,203.144,89.507z M237.035,129.622l-0.49,11.584c-0.036,0.853,0.626,1.574,1.479,1.61l0,0
					c0.853,0.036,1.574-0.626,1.61-1.479l0.49-11.584c0.036-0.853-0.626-1.574-1.479-1.61l0,0
					C237.791,128.107,237.071,128.769,237.035,129.622z M211.781,116.583l-8.537,7.845c-0.629,0.578-0.67,1.556-0.092,2.184l0,0
					c0.578,0.629,1.556,0.67,2.184,0.092l8.537-7.844c0.629-0.578,0.67-1.556,0.092-2.184l0,0
					C213.388,116.047,212.41,116.006,211.781,116.583z M203.144,89.507l-11.584-0.49c-0.853-0.036-1.574,0.626-1.61,1.479l0,0
					c-0.036,0.853,0.626,1.574,1.479,1.61l11.584,0.49c0.853,0.036,1.574-0.626,1.61-1.479l0,0
					C204.659,90.263,203.997,89.543,203.144,89.507z M237.035,129.622l-0.49,11.584c-0.036,0.853,0.626,1.574,1.479,1.61l0,0
					c0.853,0.036,1.574-0.626,1.61-1.479l0.49-11.584c0.036-0.853-0.626-1.574-1.479-1.61l0,0
					C237.791,128.107,237.071,128.769,237.035,129.622z M211.781,116.583l-8.537,7.845c-0.629,0.578-0.67,1.556-0.092,2.184l0,0
					c0.578,0.629,1.556,0.67,2.184,0.092l8.537-7.844c0.629-0.578,0.67-1.556,0.092-2.184l0,0
					C213.388,116.047,212.41,116.006,211.781,116.583z M258.784,122.898L258.784,122.898c-0.727,0.448-0.954,1.4-0.506,2.127
					l6.077,9.874c0.448,0.727,1.4,0.954,2.127,0.506l0,0c0.727-0.447,0.954-1.4,0.506-2.127l-6.077-9.874
					C260.463,122.678,259.511,122.451,258.784,122.898z M207.74,110.749l-9.874,6.077c-0.727,0.448-0.954,1.4-0.506,2.127l0,0
					c0.447,0.727,1.4,0.954,2.127,0.506l9.874-6.077c0.727-0.448,0.954-1.4,0.506-2.127l0,0
					C209.419,110.529,208.467,110.302,207.74,110.749z M204.411,82.524l-11.279-2.685c-0.831-0.198-1.664,0.315-1.862,1.146l0,0
					c-0.198,0.831,0.315,1.664,1.146,1.862l11.279,2.685c0.831,0.198,1.664-0.315,1.862-1.146l0,0
					C205.755,83.555,205.242,82.722,204.411,82.524z M230.052,128.354l-2.685,11.279c-0.198,0.831,0.315,1.664,1.146,1.862l0,0
					c0.831,0.198,1.664-0.315,1.862-1.146l2.685-11.279c0.198-0.831-0.315-1.664-1.146-1.862l0,0
					C231.083,127.01,230.25,127.523,230.052,128.354z M258.784,122.898L258.784,122.898c-0.727,0.448-0.954,1.4-0.506,2.127
					l6.077,9.874c0.448,0.727,1.4,0.954,2.127,0.506l0,0c0.727-0.447,0.954-1.4,0.506-2.127l-6.077-9.874
					C260.463,122.678,259.511,122.451,258.784,122.898z M207.74,110.749l-9.874,6.077c-0.727,0.448-0.954,1.4-0.506,2.127l0,0
					c0.447,0.727,1.4,0.954,2.127,0.506l9.874-6.077c0.727-0.448,0.954-1.4,0.506-2.127l0,0
					C209.419,110.529,208.467,110.302,207.74,110.749z M204.411,82.524l-11.279-2.685c-0.831-0.198-1.664,0.315-1.862,1.146l0,0
					c-0.198,0.831,0.315,1.664,1.146,1.862l11.279,2.685c0.831,0.198,1.664-0.315,1.862-1.146l0,0
					C205.755,83.555,205.242,82.722,204.411,82.524z M230.052,128.354l-2.685,11.279c-0.198,0.831,0.315,1.664,1.146,1.862l0,0
					c0.831,0.198,1.664-0.315,1.862-1.146l2.685-11.279c0.198-0.831-0.315-1.664-1.146-1.862l0,0
					C231.083,127.01,230.25,127.523,230.052,128.354z M206.986,75.907l-10.562-4.782c-0.778-0.352-1.694-0.007-2.046,0.771l0,0
					c-0.352,0.778-0.007,1.694,0.771,2.046l10.562,4.782c0.778,0.352,1.694,0.007,2.046-0.771l0,0
					C208.109,77.175,207.764,76.259,206.986,75.907z M223.435,125.779l-4.783,10.562c-0.352,0.778-0.007,1.694,0.771,2.046l0,0
					c0.778,0.352,1.694,0.007,2.046-0.771l4.783-10.562c0.352-0.778,0.007-1.694-0.771-2.046l0,0
					C224.703,124.657,223.787,125.002,223.435,125.779z M204.882,104.25l-10.85,4.087c-0.799,0.301-1.203,1.193-0.902,1.992l0,0
					c0.301,0.799,1.193,1.203,1.992,0.902l10.85-4.087c0.799-0.301,1.203-1.192,0.902-1.991l0,0
					C206.572,104.353,205.681,103.949,204.882,104.25z M251.778,127.884l4.087,10.85c0.301,0.799,1.192,1.203,1.991,0.902l0,0
					c0.799-0.301,1.203-1.193,0.902-1.992l-4.087-10.85c-0.301-0.799-1.193-1.203-1.992-0.902l0,0
					C251.881,126.193,251.477,127.085,251.778,127.884z M206.986,75.907l-10.562-4.782c-0.778-0.352-1.694-0.007-2.046,0.771l0,0
					c-0.352,0.778-0.007,1.694,0.771,2.046l10.562,4.782c0.778,0.352,1.694,0.007,2.046-0.771l0,0
					C208.109,77.175,207.764,76.259,206.986,75.907z M223.435,125.779l-4.783,10.562c-0.352,0.778-0.007,1.694,0.771,2.046l0,0
					c0.778,0.352,1.694,0.007,2.046-0.771l4.783-10.562c0.352-0.778,0.007-1.694-0.771-2.046l0,0
					C224.703,124.657,223.787,125.002,223.435,125.779z M204.882,104.25l-10.85,4.087c-0.799,0.301-1.203,1.193-0.902,1.992l0,0
					c0.301,0.799,1.193,1.203,1.992,0.902l10.85-4.087c0.799-0.301,1.203-1.192,0.902-1.991l0,0
					C206.572,104.353,205.681,103.949,204.882,104.25z M251.778,127.884l4.087,10.85c0.301,0.799,1.192,1.203,1.991,0.902l0,0
					c0.799-0.301,1.203-1.193,0.902-1.992l-4.087-10.85c-0.301-0.799-1.193-1.203-1.992-0.902l0,0
					C251.881,126.193,251.477,127.085,251.778,127.884z M220.024,121.234L220.024,121.234c0.687,0.507,0.832,1.475,0.325,2.162
					l-6.888,9.326c-0.507,0.687-1.475,0.832-2.162,0.325l0,0c-0.687-0.507-0.832-1.475-0.325-2.162l6.888-9.326
					C218.369,120.872,219.337,120.727,220.024,121.234z"/>
			</g>
			<circle style="fill:none;stroke:#005C86;stroke-width:0.7718;stroke-miterlimit:10;" cx="240.086" cy="92.503" r="28.947"/>
		</g>
		<g>
			<text transform="matrix(1 0 0 1 231.321 97.8511)" style="fill:#7A8487; font-family:'Bebas'; font-size:11.9504px;">35%</text>
		</g>
		<g>
			<text transform="matrix(1 0 0 1 224.5926 157.786)" style="fill:#7A8487; font-family:'Bebas'; font-size:10.0015px;">dolor sit</text>
		</g>
	</g>
	<g>
		<g>
			<path style="fill:#00A0CF;" d="M399.58,231.911c0.502,0,0.998,0.026,1.489,0.07l7.886-34.434
				c-0.107-0.025-0.211-0.057-0.319-0.082c-28.421-6.509-56.738,11.255-63.246,39.676c-3.697,16.142,0.443,32.245,9.911,44.343
				l30.39-23.864c-1.717-2.614-2.718-5.74-2.718-9.102C382.973,239.347,390.408,231.911,399.58,231.911z"/>
			<path style="fill:#FFA523;" d="M456.153,238.48l-40.061,8.262c0.062,0.584,0.096,1.176,0.096,1.777
				c0,4.023-1.431,7.712-3.812,10.586l32.675,26.577c5.136-6.451,8.944-14.123,10.908-22.697
				C457.868,254.649,457.825,246.326,456.153,238.48z"/>
			<path style="fill:#9F49A3;" d="M387.081,259.447l-21.046,16.526c2.337,2.986,5.092,5.657,8.212,7.905
				c4.261,3.07,9.193,5.358,14.634,6.604c10.619,2.432,21.213,0.439,29.872-4.753c4.146-2.486,7.852-5.699,10.898-9.524
				l-18.915-15.385c-2.948,2.675-6.862,4.306-11.156,4.306C394.594,265.126,390.125,262.926,387.081,259.447z"/>
			<path style="fill:#00B4B0;" d="M446.694,238.693c-1.608-7.544-4.999-14.561-9.812-20.481l-24.41,19.84
				c1.628,2.003,2.798,4.391,3.353,7.008L446.694,238.693z"/>
			<path style="fill:#FF3169;" d="M411.352,236.805l40.86-33.209c-3.138-3.859-6.69-7.395-10.628-10.514
				c-7.65-6.059-16.717-10.567-26.834-12.95l-11.931,52.097C406.12,232.882,409.069,234.511,411.352,236.805z"/>
		</g>
		<text transform="matrix(1 0 0 1 364.4142 235.0172)" style="fill:#FFFFFF; font-family:'Bebas'; font-size:7.5083px;">68%</text>
		<text transform="matrix(1 0 0 1 425.1642 236.8052)" style="fill:#FFFFFF; font-family:'Bebas'; font-size:7.5083px;">18%</text>
		<text transform="matrix(1 0 0 1 418.1642 210.7631)" style="fill:#FFFFFF; font-family:'Bebas'; font-size:7.5083px;">18%</text>
		<text transform="matrix(1 0 0 1 393.1642 280.9506)" style="fill:#FFFFFF; font-family:'Bebas'; font-size:7.5083px;">45%</text>
		<text transform="matrix(1 0 0 1 431.4142 263.2006)" style="fill:#FFFFFF; font-family:'Bebas'; font-size:7.5083px;">35%</text>
		<g>
			<text transform="matrix(1 0 0 1 384.1836 305.2801)" style="fill:#7A8487; font-family:'Bebas'; font-size:10.0015px;">dolor sit</text>
		</g>
	</g>
	<g>
		<path style="fill:#9F49A3;" d="M115.004,244.771l14.803-5.374c-3.346-11.539-11.283-21.145-21.693-26.703l-7.171,13.954
			C107.859,230.41,113.049,236.957,115.004,244.771z"/>
		<path style="fill:#FFA523;" d="M58.91,251.68c0-15.231,12.021-27.706,27.074-28.438v-15.702
			c-23.707,0.742-42.765,20.256-42.765,44.139c0,16.602,9.209,31.091,22.786,38.633l8.326-13.341
			C65.181,272.232,58.91,262.678,58.91,251.68z"/>
		<path style="fill:#00B4B0;" d="M115.004,244.771c0.554,2.213,0.852,4.527,0.852,6.909c0,15.7-12.773,28.473-28.473,28.473
			c-4.703,0-9.139-1.153-13.052-3.181l-8.326,13.341c6.338,3.521,13.627,5.531,21.378,5.531c24.352,0,44.164-19.812,44.164-44.164
			c0-4.261-0.609-8.382-1.74-12.283L115.004,244.771z"/>
		<path style="fill:#FF3169;" d="M87.383,223.207c4.906,0,9.526,1.247,13.56,3.441l7.171-13.954
			c-6.185-3.302-13.243-5.178-20.731-5.178c-0.468,0-0.934,0.01-1.399,0.024v15.702C86.448,223.22,86.914,223.207,87.383,223.207z"
			/>
		<text transform="matrix(1 0 0 1 49.2189 249.9478)" style="fill:#FFFFFF; font-family:'Bebas'; font-size:7.5083px;">a</text>
		<text transform="matrix(1 0 0 1 95.3881 221.2983)" style="fill:#FFFFFF; font-family:'Bebas'; font-size:7.5083px;">b</text>
		<text transform="matrix(1 0 0 1 112.7083 232.6638)" style="fill:#FFFFFF; font-family:'Bebas'; font-size:7.5083px;">c</text>
		<text transform="matrix(1 0 0 1 106.2472 282.9801)" style="fill:#FFFFFF; font-family:'Bebas'; font-size:7.5083px;">d</text>
		<g>
			<text transform="matrix(1 0 0 1 75.4303 249.9475)"><tspan x="0" y="0" style="fill:#7A8487; font-family:'Bebas'; font-size:10.0015px;">ipsum </tspan><tspan x="2.854" y="12.002" style="fill:#7A8487; font-family:'Bebas'; font-size:10.0015px;">dolor</tspan></text>
		</g>
	</g>
	<g>
		<g>
			<path style="fill:#FFA523;" d="M398.98,63.951c-6.308-6.326-15.032-10.241-24.671-10.241c-19.243,0-34.843,15.6-34.843,34.843
				s15.6,34.843,34.843,34.843c9.639,0,18.363-3.915,24.671-10.241c-6.285-6.303-10.172-14.998-10.172-24.602
				S392.695,70.254,398.98,63.951z"/>
			<path style="fill:#FF3169;" d="M423.651,53.711c-9.639,0-18.363,3.915-24.671,10.241c6.285,6.303,10.172,14.998,10.172,24.602
				s-3.887,18.3-10.172,24.602c6.308,6.326,15.032,10.241,24.671,10.241c19.243,0,34.843-15.6,34.843-34.843
				S442.895,53.711,423.651,53.711z"/>
			<path style="fill:#00B4B0;" d="M398.98,63.951c-6.285,6.303-10.172,14.998-10.172,24.602s3.887,18.3,10.172,24.602
				c6.285-6.303,10.172-14.998,10.172-24.602S405.265,70.254,398.98,63.951z"/>
		</g>
		<text transform="matrix(1 0 0 1 353.4366 90.7251)" style="fill:#FFFFFF; font-family:'Bebas'; font-size:5.5532px;">Lorem</text>
		<text transform="matrix(1 0 0 1 430.4366 90.7251)" style="fill:#FFFFFF; font-family:'Bebas'; font-size:5.5532px;">ipsum</text>
		<text transform="matrix(1 0 0 1 393.4688 90.7251)" style="fill:#FFFFFF; font-family:'Bebas'; font-size:5.5532px;">sit</text>
		<g>
			<text transform="matrix(1 0 0 1 360.0681 141.4426)" style="fill:#7A8487; font-family:'Bebas'; font-size:10.0015px;">consectetuer adipis</text>
		</g>
	</g>
	<g>
		<path style="fill:#FFA523;" d="M50.763,67.368c-3.897,6.929-6.122,14.923-6.122,23.439c0,17.722,9.628,33.194,23.937,41.474
			c8.241-13.986,23.948-41.474,23.948-41.474L50.763,67.368z"/>
		<path style="fill:#FF3169;" d="M126.976,54.645c-8.621-8.364-20.377-13.515-33.338-13.515c-17.931,0-33.557,9.857-41.763,24.447
			l41.763,23.439L126.976,54.645z"/>
		<path style="fill:#00A0CF;" d="M140.749,75.799c-2.37-7.957-6.752-15.046-12.558-20.678l-33.338,34.37L140.749,75.799z"/>
		<path style="fill:#9F49A3;" d="M141.284,77.115L95.388,90.806l40.26,25.934c4.824-7.474,7.626-16.377,7.626-25.934
			C143.273,86.048,142.576,81.453,141.284,77.115z"/>
		<path style="fill:#00B4B0;" d="M94.195,98.794v-6.656c0,0-15.707,27.488-23.948,41.474c7.045,4.077,15.224,6.411,23.948,6.411
			c16.889,0,31.734-8.744,40.26-21.951l-40.26-25.934V98.794z"/>
		<text transform="matrix(1 0 0 1 59.7189 101.3105)" style="fill:#FFFFFF; font-family:'Bebas'; font-size:7.5083px;">68%</text>
		<text transform="matrix(1 0 0 1 94.8534 124.1126)" style="fill:#FFFFFF; font-family:'Bebas'; font-size:7.5083px;">18%</text>
		<text transform="matrix(1 0 0 1 117.8012 77.1149)" style="fill:#FFFFFF; font-family:'Bebas'; font-size:7.5083px;">18%</text>
		<text transform="matrix(1 0 0 1 80.4689 64.226)" style="fill:#FFFFFF; font-family:'Bebas'; font-size:7.5083px;">45%</text>
		<text transform="matrix(1 0 0 1 122.7188 99.5684)" style="fill:#FFFFFF; font-family:'Bebas'; font-size:7.5083px;">35%</text>
		<g>
			<text transform="matrix(1 0 0 1 73.5885 157.786)" style="fill:#7A8487; font-family:'Bebas'; font-size:10.0015px;">sed diam</text>
		</g>
	</g>
	<g>
		<g>
			<g>
				<path style="opacity:0.37;fill:#D8D8D8;" d="M245.134,285.435c-17.598,0-31.915-14.317-31.915-31.915
					s14.317-31.915,31.915-31.915s31.915,14.317,31.915,31.915S262.732,285.435,245.134,285.435z M245.134,224.061
					c-16.244,0-29.46,13.215-29.46,29.46s13.215,29.46,29.46,29.46s29.46-13.215,29.46-29.46S261.379,224.061,245.134,224.061z"/>
			</g>
			<g>
				<path style="opacity:0.37;fill:#D8D8D8;" d="M245.134,291.88c-21.151,0-38.359-17.208-38.359-38.359
					s17.208-38.359,38.359-38.359c21.152,0,38.359,17.208,38.359,38.359S266.286,291.88,245.134,291.88z M245.134,217.616
					c-19.797,0-35.904,16.107-35.904,35.904c0,19.798,16.107,35.904,35.904,35.904c19.798,0,35.904-16.107,35.904-35.904
					C281.038,233.723,264.932,217.616,245.134,217.616z"/>
			</g>
			<g>
				<path style="opacity:0.37;fill:#D8D8D8;" d="M245.134,298.631c-24.874,0-45.11-20.236-45.11-45.11s20.236-45.11,45.11-45.11
					c24.874,0,45.111,20.236,45.111,45.11S270.008,298.631,245.134,298.631z M245.134,210.865c-23.52,0-42.655,19.135-42.655,42.655
					s19.135,42.655,42.655,42.655c23.52,0,42.656-19.135,42.656-42.655S268.654,210.865,245.134,210.865z"/>
			</g>
			<g>
				<path style="opacity:0.37;fill:#D8D8D8;" d="M245.134,305.382c-28.597,0-51.862-23.265-51.862-51.862
					s23.265-51.862,51.862-51.862c28.597,0,51.862,23.265,51.862,51.862S273.731,305.382,245.134,305.382z M245.134,204.114
					c-27.243,0-49.407,22.164-49.407,49.407s22.164,49.407,49.407,49.407c27.243,0,49.407-22.164,49.407-49.407
					S272.377,204.114,245.134,204.114z"/>
			</g>
			<g>
				<path style="fill:#9F49A3;" d="M245.134,224.367c11.566,0.159,22.164,6.922,26.785,17.618
					c5.158,11.94,1.503,25.686-8.254,34.051c-1.502,1.288,0.677,3.45,2.17,2.17c10.696-9.17,14.495-24.387,8.898-37.408
					c-5.083-11.826-16.815-19.324-29.599-19.499C243.159,221.271,243.158,224.34,245.134,224.367L245.134,224.367z"/>
			</g>
			<g>
				<path style="fill:#FFA523;" d="M245.134,217.923c14.755,0.168,28.275,9.308,33.406,23.263
					c5.101,13.875,0.927,29.813-10.295,39.417c-6.459,5.527-14.646,8.419-23.11,8.515c-1.973,0.022-1.979,3.091,0,3.069
					c16.035-0.183,30.53-10.066,36.224-25.131c5.742-15.19,0.965-32.993-11.559-43.304c-6.985-5.751-15.638-8.794-24.665-8.897
					C243.159,214.832,243.158,217.9,245.134,217.923L245.134,217.923z"/>
			</g>
			<g>
				<path style="fill:#FF3169;" d="M245.134,211.172c22.737,0.219,41.897,18.57,42.34,41.485
					c0.439,22.716-17.861,42.299-40.617,43.179c-14.321,0.554-27.954-6.25-36.303-17.854c-1.143-1.589-3.806-0.058-2.65,1.549
					c15.363,21.351,46.021,25.769,66.383,8.809c18.795-15.655,21.475-44.355,6.174-63.351
					c-8.604-10.682-21.668-16.754-35.327-16.886C243.159,208.084,243.157,211.153,245.134,211.172L245.134,211.172z"/>
			</g>
			<g>
				<path style="fill:#00B4B0;" d="M245.134,204.421c16.294,0.136,31.749,8.199,40.83,21.815
					c9.043,13.559,10.783,31.159,4.496,46.212c-6.118,14.648-19.323,25.643-34.817,29.048c-16.071,3.531-33.225-1.439-44.943-12.974
					c-14.465-14.239-18.574-36.284-10.486-54.879c0.78-1.793-1.863-3.357-2.65-1.549c-7.588,17.445-5.535,37.84,6.077,53.032
					c10.531,13.778,27.59,21.621,44.924,20.449c17.232-1.165,33.092-10.994,41.75-25.956c8.684-15.007,9.228-33.83,1.529-49.348
					c-8.762-17.659-27.098-28.755-46.71-28.919C243.159,201.335,243.157,204.404,245.134,204.421L245.134,204.421z"/>
			</g>
		</g>
		<text transform="matrix(1 0 0 1 253.5118 274.1396)" style="fill:#9F49A3; font-family:'Bebas'; font-size:5px;">15%</text>
		<text transform="matrix(1 0 0 1 237.7618 287.0146)" style="fill:#FFA523; font-family:'Bebas'; font-size:5px;">35%</text>
		<text transform="matrix(1 0 0 1 209.23 276.0146)" style="fill:#FF3169; font-family:'Bebas'; font-size:5px;">45%</text>
		<text transform="matrix(1 0 0 1 202.4788 233.6397)" style="fill:#00B4B0; font-family:'Bebas'; font-size:5px;">68%</text>
		<g>
			<text transform="matrix(1 0 0 1 225.1794 257.0935)" style="fill:#7A8487; font-family:'Bebas'; font-size:10.0015px;">sed diam</text>
		</g>
	</g>
</g>
</svg>
